<mxfile host="65bd71144e" modified="2020-11-20T15:38:42.436Z" agent="5.0 (X11; Linux x86_64) AppleWebKit/537.36 (KHTML, like Gecko) Code/1.49.2 Chrome/83.0.4103.122 Electron/9.2.1 Safari/537.36" etag="k9tupLmSiBLrVlj1GhCk" version="13.6.5" pages="4">
    <diagram id="zs6TifJFR34dfvWJ820B" name="header">
        <mxGraphModel dx="1026" dy="968" grid="1" gridSize="10" guides="1" tooltips="1" connect="0" arrows="1" fold="1" page="1" pageScale="1" pageWidth="850" pageHeight="1100" background="#ffffff" math="0" shadow="1">
            <root>
                <mxCell id="0"/>
                <mxCell id="1" parent="0"/>
                <mxCell id="NZ37hKzB5TpYFF4TYw-a-1" value="&lt;div&gt;FPGA BIN HEADER&lt;/div&gt;" style="rounded=1;whiteSpace=wrap;html=1;fillColor=#7EA6E0;" parent="1" vertex="1">
                    <mxGeometry x="45" y="150" width="260" height="40" as="geometry"/>
                </mxCell>
                <mxCell id="NZ37hKzB5TpYFF4TYw-a-2" value="&lt;div&gt;FPGA BITSTREAM BIN&lt;br&gt;&lt;/div&gt;" style="rounded=1;whiteSpace=wrap;html=1;fillColor=#97D077;" parent="1" vertex="1">
                    <mxGeometry x="45" y="190" width="260" height="120" as="geometry"/>
                </mxCell>
                <mxCell id="NZ37hKzB5TpYFF4TYw-a-3" value="&lt;div&gt;FPGA IOMUX BIN&lt;br&gt;&lt;/div&gt;" style="rounded=1;whiteSpace=wrap;html=1;fillColor=#EA6B66;" parent="1" vertex="1">
                    <mxGeometry x="45" y="430" width="260" height="120" as="geometry"/>
                </mxCell>
                <mxCell id="NZ37hKzB5TpYFF4TYw-a-4" value="&lt;div&gt;FPGA MEMINIT BIN&lt;br&gt;&lt;/div&gt;" style="rounded=1;whiteSpace=wrap;html=1;fillColor=#FFD966;" parent="1" vertex="1">
                    <mxGeometry x="45" y="310" width="260" height="120" as="geometry"/>
                </mxCell>
                <mxCell id="NZ37hKzB5TpYFF4TYw-a-5" value="FPGA BIN VERSION 4B" style="rounded=1;whiteSpace=wrap;html=1;fillColor=#7EA6E0;" parent="1" vertex="1">
                    <mxGeometry x="405" y="220" width="260" height="40" as="geometry"/>
                </mxCell>
                <mxCell id="NZ37hKzB5TpYFF4TYw-a-6" value="BITSTREAM BIN SIZE 4B" style="rounded=1;whiteSpace=wrap;html=1;fillColor=#97D077;" parent="1" vertex="1">
                    <mxGeometry x="405" y="260" width="260" height="40" as="geometry"/>
                </mxCell>
                <mxCell id="NZ37hKzB5TpYFF4TYw-a-7" value="BITSTREAM BIN CRC 4B" style="rounded=1;whiteSpace=wrap;html=1;fillColor=#97D077;" parent="1" vertex="1">
                    <mxGeometry x="405" y="300" width="260" height="40" as="geometry"/>
                </mxCell>
                <mxCell id="NZ37hKzB5TpYFF4TYw-a-8" value="MEMINIT BIN SIZE 4B" style="rounded=1;whiteSpace=wrap;html=1;fillColor=#FFD966;" parent="1" vertex="1">
                    <mxGeometry x="405" y="340" width="260" height="40" as="geometry"/>
                </mxCell>
                <mxCell id="NZ37hKzB5TpYFF4TYw-a-9" value="MEMINIT BIN CRC 4B" style="rounded=1;whiteSpace=wrap;html=1;fillColor=#FFD966;" parent="1" vertex="1">
                    <mxGeometry x="405" y="380" width="260" height="40" as="geometry"/>
                </mxCell>
                <mxCell id="NZ37hKzB5TpYFF4TYw-a-10" value="IOMUX BIN SIZE 4B" style="rounded=1;whiteSpace=wrap;html=1;fillColor=#EA6B66;" parent="1" vertex="1">
                    <mxGeometry x="405" y="420" width="260" height="40" as="geometry"/>
                </mxCell>
                <mxCell id="NZ37hKzB5TpYFF4TYw-a-11" value="RESERVED 4B" style="rounded=1;whiteSpace=wrap;html=1;fillColor=#B3B3B3;" parent="1" vertex="1">
                    <mxGeometry x="405" y="500" width="260" height="40" as="geometry"/>
                </mxCell>
                <mxCell id="NZ37hKzB5TpYFF4TYw-a-12" value="" style="endArrow=classic;html=1;exitX=1;exitY=0.5;exitDx=0;exitDy=0;entryX=0;entryY=0;entryDx=0;entryDy=0;" parent="1" source="NZ37hKzB5TpYFF4TYw-a-1" target="NZ37hKzB5TpYFF4TYw-a-5" edge="1">
                    <mxGeometry width="50" height="50" relative="1" as="geometry">
                        <mxPoint x="475" y="180" as="sourcePoint"/>
                        <mxPoint x="405" y="220" as="targetPoint"/>
                    </mxGeometry>
                </mxCell>
                <mxCell id="NZ37hKzB5TpYFF4TYw-a-13" value="" style="endArrow=classic;html=1;exitX=1;exitY=0.5;exitDx=0;exitDy=0;entryX=0;entryY=1;entryDx=0;entryDy=0;" parent="1" source="NZ37hKzB5TpYFF4TYw-a-1" target="NZ37hKzB5TpYFF4TYw-a-11" edge="1">
                    <mxGeometry width="50" height="50" relative="1" as="geometry">
                        <mxPoint x="455" y="580" as="sourcePoint"/>
                        <mxPoint x="505" y="530" as="targetPoint"/>
                    </mxGeometry>
                </mxCell>
                <mxCell id="NZ37hKzB5TpYFF4TYw-a-14" value="&lt;h1&gt;FPGA BINARY STRUCTURE&lt;br&gt;&lt;/h1&gt;&lt;p&gt;&lt;b&gt;&lt;font style=&quot;font-size: 18px&quot;&gt;HEADER&lt;/font&gt;&lt;/b&gt;&lt;br&gt;&lt;/p&gt;" style="text;html=1;strokeColor=none;fillColor=none;spacing=5;spacingTop=-20;whiteSpace=wrap;overflow=hidden;rounded=0;" parent="1" vertex="1">
                    <mxGeometry x="45" y="40" width="330" height="80" as="geometry"/>
                </mxCell>
                <mxCell id="NZ37hKzB5TpYFF4TYw-a-15" value="&lt;div&gt;0x0000 0001&lt;/div&gt;&lt;div&gt;v0.1&lt;br&gt;&lt;/div&gt;" style="rounded=1;whiteSpace=wrap;html=1;fillColor=#FFFFFF;" parent="1" vertex="1">
                    <mxGeometry x="685" y="220" width="120" height="40" as="geometry"/>
                </mxCell>
                <mxCell id="YljPpI7rPf85vw6zAqOv-1" value="IOMUX BIN CRC 4B" style="rounded=1;whiteSpace=wrap;html=1;fillColor=#EA6B66;" parent="1" vertex="1">
                    <mxGeometry x="405" y="460" width="260" height="40" as="geometry"/>
                </mxCell>
            </root>
        </mxGraphModel>
    </diagram>
    <diagram id="0i4zK8VX27Sp79aWL-fW" name="bitstream">
        <mxGraphModel dx="989" dy="613" grid="1" gridSize="10" guides="1" tooltips="1" connect="1" arrows="1" fold="1" page="1" pageScale="1" pageWidth="850" pageHeight="1100" background="#ffffff" math="0" shadow="0">
            <root>
                <mxCell id="5lB93eU8rxpjtQvUX2yE-0"/>
                <mxCell id="5lB93eU8rxpjtQvUX2yE-1" parent="5lB93eU8rxpjtQvUX2yE-0"/>
                <mxCell id="8EctooYR8JWANznIS-aV-0" value="&lt;div&gt;FPGA BIN HEADER&lt;/div&gt;" style="rounded=1;whiteSpace=wrap;html=1;fillColor=#7EA6E0;" parent="5lB93eU8rxpjtQvUX2yE-1" vertex="1">
                    <mxGeometry x="45" y="150" width="260" height="40" as="geometry"/>
                </mxCell>
                <mxCell id="8EctooYR8JWANznIS-aV-1" value="&lt;div&gt;FPGA BITSTREAM BIN&lt;br&gt;&lt;/div&gt;" style="rounded=1;whiteSpace=wrap;html=1;fillColor=#97D077;" parent="5lB93eU8rxpjtQvUX2yE-1" vertex="1">
                    <mxGeometry x="45" y="190" width="260" height="120" as="geometry"/>
                </mxCell>
                <mxCell id="8EctooYR8JWANznIS-aV-2" value="&lt;div&gt;FPGA IOMUX BIN&lt;br&gt;&lt;/div&gt;" style="rounded=1;whiteSpace=wrap;html=1;fillColor=#EA6B66;" parent="5lB93eU8rxpjtQvUX2yE-1" vertex="1">
                    <mxGeometry x="45" y="430" width="260" height="120" as="geometry"/>
                </mxCell>
                <mxCell id="8EctooYR8JWANznIS-aV-3" value="&lt;div&gt;FPGA MEMINIT BIN&lt;br&gt;&lt;/div&gt;" style="rounded=1;whiteSpace=wrap;html=1;fillColor=#FFD966;" parent="5lB93eU8rxpjtQvUX2yE-1" vertex="1">
                    <mxGeometry x="45" y="310" width="260" height="120" as="geometry"/>
                </mxCell>
                <mxCell id="8EctooYR8JWANznIS-aV-5" value="BITSTREAM WORD 1 4B" style="rounded=1;whiteSpace=wrap;html=1;fillColor=#97D077;" parent="5lB93eU8rxpjtQvUX2yE-1" vertex="1">
                    <mxGeometry x="405" y="260" width="260" height="40" as="geometry"/>
                </mxCell>
                <mxCell id="8EctooYR8JWANznIS-aV-6" value="BITSTREAM WORD 2 4B" style="rounded=1;whiteSpace=wrap;html=1;fillColor=#97D077;" parent="5lB93eU8rxpjtQvUX2yE-1" vertex="1">
                    <mxGeometry x="405" y="300" width="260" height="40" as="geometry"/>
                </mxCell>
                <mxCell id="8EctooYR8JWANznIS-aV-11" value="" style="endArrow=classic;html=1;exitX=1;exitY=0.5;exitDx=0;exitDy=0;entryX=0;entryY=0;entryDx=0;entryDy=0;" parent="5lB93eU8rxpjtQvUX2yE-1" source="8EctooYR8JWANznIS-aV-1" edge="1">
                    <mxGeometry width="50" height="50" relative="1" as="geometry">
                        <mxPoint x="475" y="180" as="sourcePoint"/>
                        <mxPoint x="405" y="219.9999999999999" as="targetPoint"/>
                    </mxGeometry>
                </mxCell>
                <mxCell id="8EctooYR8JWANznIS-aV-12" value="" style="endArrow=classic;html=1;exitX=1;exitY=0.5;exitDx=0;exitDy=0;entryX=0;entryY=1;entryDx=0;entryDy=0;" parent="5lB93eU8rxpjtQvUX2yE-1" source="8EctooYR8JWANznIS-aV-1" edge="1">
                    <mxGeometry width="50" height="50" relative="1" as="geometry">
                        <mxPoint x="455" y="580" as="sourcePoint"/>
                        <mxPoint x="405" y="500" as="targetPoint"/>
                    </mxGeometry>
                </mxCell>
                <mxCell id="8EctooYR8JWANznIS-aV-13" value="&lt;h1&gt;FPGA BINARY STRUCTURE&lt;br&gt;&lt;/h1&gt;&lt;p&gt;&lt;b&gt;&lt;font style=&quot;font-size: 18px&quot;&gt;BITSTREAM&lt;/font&gt;&lt;/b&gt;&lt;br&gt;&lt;/p&gt;" style="text;html=1;strokeColor=none;fillColor=none;spacing=5;spacingTop=-20;whiteSpace=wrap;overflow=hidden;rounded=0;" parent="5lB93eU8rxpjtQvUX2yE-1" vertex="1">
                    <mxGeometry x="45" y="40" width="330" height="80" as="geometry"/>
                </mxCell>
                <mxCell id="-wLPI6ti6Y8MJahMRPuA-0" value="BITSTREAM WORD 0 4B" style="rounded=1;whiteSpace=wrap;html=1;fillColor=#97D077;" parent="5lB93eU8rxpjtQvUX2yE-1" vertex="1">
                    <mxGeometry x="405" y="220" width="260" height="40" as="geometry"/>
                </mxCell>
                <mxCell id="-wLPI6ti6Y8MJahMRPuA-1" value="BITSTREAM WORDs ..." style="rounded=1;whiteSpace=wrap;html=1;fillColor=#97D077;" parent="5lB93eU8rxpjtQvUX2yE-1" vertex="1">
                    <mxGeometry x="405" y="340" width="260" height="120" as="geometry"/>
                </mxCell>
                <mxCell id="-wLPI6ti6Y8MJahMRPuA-2" value="BITSTREAM WORD N 4B" style="rounded=1;whiteSpace=wrap;html=1;fillColor=#97D077;" parent="5lB93eU8rxpjtQvUX2yE-1" vertex="1">
                    <mxGeometry x="405" y="460" width="260" height="40" as="geometry"/>
                </mxCell>
            </root>
        </mxGraphModel>
    </diagram>
    <diagram id="zCNZDx2-F9tS3jyGKbsN" name="meminit">
        <mxGraphModel dx="989" dy="613" grid="1" gridSize="10" guides="1" tooltips="1" connect="1" arrows="1" fold="1" page="1" pageScale="1" pageWidth="850" pageHeight="1100" background="#ffffff" math="0" shadow="0">
            <root>
                <mxCell id="_g6JHhyYYA-KE8JZwOdu-0"/>
                <mxCell id="_g6JHhyYYA-KE8JZwOdu-1" parent="_g6JHhyYYA-KE8JZwOdu-0"/>
                <mxCell id="hLSmzbwxWjhp8OIqOBMe-0" value="&lt;div&gt;FPGA BIN HEADER&lt;/div&gt;" style="rounded=1;whiteSpace=wrap;html=1;fillColor=#7EA6E0;" parent="_g6JHhyYYA-KE8JZwOdu-1" vertex="1">
                    <mxGeometry x="45" y="150" width="260" height="40" as="geometry"/>
                </mxCell>
                <mxCell id="hLSmzbwxWjhp8OIqOBMe-1" value="&lt;div&gt;FPGA BITSTREAM BIN&lt;br&gt;&lt;/div&gt;" style="rounded=1;whiteSpace=wrap;html=1;fillColor=#97D077;" parent="_g6JHhyYYA-KE8JZwOdu-1" vertex="1">
                    <mxGeometry x="45" y="190" width="260" height="120" as="geometry"/>
                </mxCell>
                <mxCell id="hLSmzbwxWjhp8OIqOBMe-2" value="&lt;div&gt;FPGA IOMUX BIN&lt;br&gt;&lt;/div&gt;" style="rounded=1;whiteSpace=wrap;html=1;fillColor=#EA6B66;" parent="_g6JHhyYYA-KE8JZwOdu-1" vertex="1">
                    <mxGeometry x="45" y="430" width="260" height="120" as="geometry"/>
                </mxCell>
                <mxCell id="hLSmzbwxWjhp8OIqOBMe-3" value="&lt;div&gt;FPGA MEMINIT BIN&lt;br&gt;&lt;/div&gt;" style="rounded=1;whiteSpace=wrap;html=1;fillColor=#FFD966;" parent="_g6JHhyYYA-KE8JZwOdu-1" vertex="1">
                    <mxGeometry x="45" y="310" width="260" height="120" as="geometry"/>
                </mxCell>
                <mxCell id="hLSmzbwxWjhp8OIqOBMe-4" value="MEMINIT SECTION 0 SIZE 4B" style="rounded=1;whiteSpace=wrap;html=1;fillColor=#FFD966;" parent="_g6JHhyYYA-KE8JZwOdu-1" vertex="1">
                    <mxGeometry x="690" y="360" width="260" height="40" as="geometry"/>
                </mxCell>
                <mxCell id="hLSmzbwxWjhp8OIqOBMe-5" value="&lt;div&gt;MEMINIT SECTION 0 VALUE WORDS&lt;/div&gt;&lt;div&gt;[SIZE B]&lt;/div&gt;" style="rounded=1;whiteSpace=wrap;html=1;fillColor=#FFD966;" parent="_g6JHhyYYA-KE8JZwOdu-1" vertex="1">
                    <mxGeometry x="690" y="400" width="260" height="40" as="geometry"/>
                </mxCell>
                <mxCell id="hLSmzbwxWjhp8OIqOBMe-6" value="" style="endArrow=classic;html=1;exitX=1;exitY=0.5;exitDx=0;exitDy=0;entryX=0;entryY=0;entryDx=0;entryDy=0;" parent="_g6JHhyYYA-KE8JZwOdu-1" source="hLSmzbwxWjhp8OIqOBMe-3" target="hLSmzbwxWjhp8OIqOBMe-14" edge="1">
                    <mxGeometry width="50" height="50" relative="1" as="geometry">
                        <mxPoint x="475" y="180" as="sourcePoint"/>
                        <mxPoint x="405" y="219.9999999999999" as="targetPoint"/>
                    </mxGeometry>
                </mxCell>
                <mxCell id="hLSmzbwxWjhp8OIqOBMe-7" value="" style="endArrow=classic;html=1;exitX=1;exitY=0.5;exitDx=0;exitDy=0;entryX=0;entryY=1;entryDx=0;entryDy=0;" parent="_g6JHhyYYA-KE8JZwOdu-1" source="hLSmzbwxWjhp8OIqOBMe-3" target="hLSmzbwxWjhp8OIqOBMe-17" edge="1">
                    <mxGeometry width="50" height="50" relative="1" as="geometry">
                        <mxPoint x="455" y="580" as="sourcePoint"/>
                        <mxPoint x="405" y="500" as="targetPoint"/>
                    </mxGeometry>
                </mxCell>
                <mxCell id="hLSmzbwxWjhp8OIqOBMe-8" value="&lt;h1&gt;FPGA BINARY STRUCTURE&lt;br&gt;&lt;/h1&gt;&lt;p&gt;&lt;b&gt;&lt;font style=&quot;font-size: 18px&quot;&gt;MEMINIT&lt;/font&gt;&lt;/b&gt;&lt;br&gt;&lt;/p&gt;" style="text;html=1;strokeColor=none;fillColor=none;spacing=5;spacingTop=-20;whiteSpace=wrap;overflow=hidden;rounded=0;" parent="_g6JHhyYYA-KE8JZwOdu-1" vertex="1">
                    <mxGeometry x="45" y="40" width="330" height="80" as="geometry"/>
                </mxCell>
                <mxCell id="hLSmzbwxWjhp8OIqOBMe-9" value="MEMINIT SECTION 0 START ADDR 4B" style="rounded=1;whiteSpace=wrap;html=1;fillColor=#FFD966;" parent="_g6JHhyYYA-KE8JZwOdu-1" vertex="1">
                    <mxGeometry x="690" y="320" width="260" height="40" as="geometry"/>
                </mxCell>
                <mxCell id="hLSmzbwxWjhp8OIqOBMe-14" value="MEMINIT SECTION 0" style="rounded=1;whiteSpace=wrap;html=1;fillColor=#FFD966;" parent="_g6JHhyYYA-KE8JZwOdu-1" vertex="1">
                    <mxGeometry x="360" y="290" width="260" height="40" as="geometry"/>
                </mxCell>
                <mxCell id="hLSmzbwxWjhp8OIqOBMe-15" value="MEMINIT SECTION 1" style="rounded=1;whiteSpace=wrap;html=1;fillColor=#FFD966;" parent="_g6JHhyYYA-KE8JZwOdu-1" vertex="1">
                    <mxGeometry x="360" y="330" width="260" height="40" as="geometry"/>
                </mxCell>
                <mxCell id="hLSmzbwxWjhp8OIqOBMe-16" value="MEMINIT SECTION ..." style="rounded=1;whiteSpace=wrap;html=1;fillColor=#FFD966;" parent="_g6JHhyYYA-KE8JZwOdu-1" vertex="1">
                    <mxGeometry x="360" y="370" width="260" height="40" as="geometry"/>
                </mxCell>
                <mxCell id="hLSmzbwxWjhp8OIqOBMe-17" value="MEMINIT SECTION N" style="rounded=1;whiteSpace=wrap;html=1;fillColor=#FFD966;" parent="_g6JHhyYYA-KE8JZwOdu-1" vertex="1">
                    <mxGeometry x="360" y="410" width="260" height="40" as="geometry"/>
                </mxCell>
                <mxCell id="hLSmzbwxWjhp8OIqOBMe-18" value="" style="endArrow=classic;html=1;exitX=1;exitY=0.5;exitDx=0;exitDy=0;entryX=0;entryY=0;entryDx=0;entryDy=0;" parent="_g6JHhyYYA-KE8JZwOdu-1" source="hLSmzbwxWjhp8OIqOBMe-14" target="hLSmzbwxWjhp8OIqOBMe-9" edge="1">
                    <mxGeometry width="50" height="50" relative="1" as="geometry">
                        <mxPoint x="350" y="690" as="sourcePoint"/>
                        <mxPoint x="400" y="640" as="targetPoint"/>
                    </mxGeometry>
                </mxCell>
                <mxCell id="hLSmzbwxWjhp8OIqOBMe-20" value="" style="endArrow=classic;html=1;exitX=1;exitY=0.5;exitDx=0;exitDy=0;entryX=0;entryY=1;entryDx=0;entryDy=0;" parent="_g6JHhyYYA-KE8JZwOdu-1" source="hLSmzbwxWjhp8OIqOBMe-14" target="hLSmzbwxWjhp8OIqOBMe-5" edge="1">
                    <mxGeometry width="50" height="50" relative="1" as="geometry">
                        <mxPoint x="630" y="670" as="sourcePoint"/>
                        <mxPoint x="690" y="510" as="targetPoint"/>
                    </mxGeometry>
                </mxCell>
            </root>
        </mxGraphModel>
    </diagram>
    <diagram id="0VLfFM8AdqEgVoO2ezs3" name="iomux">
        <mxGraphModel dx="989" dy="613" grid="1" gridSize="10" guides="1" tooltips="1" connect="1" arrows="1" fold="1" page="1" pageScale="1" pageWidth="850" pageHeight="1100" background="#ffffff" math="0" shadow="0">
            <root>
                <mxCell id="SK1W7nOqpnPjAOKCd3be-0"/>
                <mxCell id="SK1W7nOqpnPjAOKCd3be-1" parent="SK1W7nOqpnPjAOKCd3be-0"/>
                <mxCell id="70My6xYHqhUKVlmFIiMn-0" value="&lt;div&gt;FPGA BIN HEADER&lt;/div&gt;" style="rounded=1;whiteSpace=wrap;html=1;fillColor=#7EA6E0;" parent="SK1W7nOqpnPjAOKCd3be-1" vertex="1">
                    <mxGeometry x="45" y="150" width="260" height="40" as="geometry"/>
                </mxCell>
                <mxCell id="70My6xYHqhUKVlmFIiMn-1" value="&lt;div&gt;FPGA BITSTREAM BIN&lt;br&gt;&lt;/div&gt;" style="rounded=1;whiteSpace=wrap;html=1;fillColor=#97D077;" parent="SK1W7nOqpnPjAOKCd3be-1" vertex="1">
                    <mxGeometry x="45" y="190" width="260" height="120" as="geometry"/>
                </mxCell>
                <mxCell id="70My6xYHqhUKVlmFIiMn-2" value="&lt;div&gt;FPGA IOMUX BIN&lt;br&gt;&lt;/div&gt;" style="rounded=1;whiteSpace=wrap;html=1;fillColor=#EA6B66;" parent="SK1W7nOqpnPjAOKCd3be-1" vertex="1">
                    <mxGeometry x="45" y="430" width="260" height="120" as="geometry"/>
                </mxCell>
                <mxCell id="70My6xYHqhUKVlmFIiMn-3" value="&lt;div&gt;FPGA MEMINIT BIN&lt;br&gt;&lt;/div&gt;" style="rounded=1;whiteSpace=wrap;html=1;fillColor=#FFD966;" parent="SK1W7nOqpnPjAOKCd3be-1" vertex="1">
                    <mxGeometry x="45" y="310" width="260" height="120" as="geometry"/>
                </mxCell>
                <mxCell id="70My6xYHqhUKVlmFIiMn-4" value="IOMUX 0 REG VALUE 4B" style="rounded=1;whiteSpace=wrap;html=1;fillColor=#EA6B66;" parent="SK1W7nOqpnPjAOKCd3be-1" vertex="1">
                    <mxGeometry x="405" y="260" width="260" height="40" as="geometry"/>
                </mxCell>
                <mxCell id="70My6xYHqhUKVlmFIiMn-6" value="" style="endArrow=classic;html=1;exitX=1;exitY=0.5;exitDx=0;exitDy=0;entryX=0;entryY=0;entryDx=0;entryDy=0;" parent="SK1W7nOqpnPjAOKCd3be-1" source="70My6xYHqhUKVlmFIiMn-2" edge="1">
                    <mxGeometry width="50" height="50" relative="1" as="geometry">
                        <mxPoint x="475" y="180" as="sourcePoint"/>
                        <mxPoint x="405" y="219.9999999999999" as="targetPoint"/>
                    </mxGeometry>
                </mxCell>
                <mxCell id="70My6xYHqhUKVlmFIiMn-7" value="" style="endArrow=classic;html=1;exitX=1;exitY=0.5;exitDx=0;exitDy=0;entryX=0;entryY=0.75;entryDx=0;entryDy=0;" parent="SK1W7nOqpnPjAOKCd3be-1" source="70My6xYHqhUKVlmFIiMn-2" target="70My6xYHqhUKVlmFIiMn-16" edge="1">
                    <mxGeometry width="50" height="50" relative="1" as="geometry">
                        <mxPoint x="455" y="580" as="sourcePoint"/>
                        <mxPoint x="405" y="500" as="targetPoint"/>
                    </mxGeometry>
                </mxCell>
                <mxCell id="70My6xYHqhUKVlmFIiMn-8" value="&lt;h1&gt;FPGA BINARY STRUCTURE&lt;br&gt;&lt;/h1&gt;&lt;p&gt;&lt;b&gt;&lt;font style=&quot;font-size: 18px&quot;&gt;IOMUX&lt;/font&gt;&lt;/b&gt;&lt;br&gt;&lt;/p&gt;" style="text;html=1;strokeColor=none;fillColor=none;spacing=5;spacingTop=-20;whiteSpace=wrap;overflow=hidden;rounded=0;" parent="SK1W7nOqpnPjAOKCd3be-1" vertex="1">
                    <mxGeometry x="45" y="40" width="330" height="80" as="geometry"/>
                </mxCell>
                <mxCell id="70My6xYHqhUKVlmFIiMn-9" value="IOMUX 0 REG ADDR 4B" style="rounded=1;whiteSpace=wrap;html=1;fillColor=#EA6B66;" parent="SK1W7nOqpnPjAOKCd3be-1" vertex="1">
                    <mxGeometry x="405" y="220" width="260" height="40" as="geometry"/>
                </mxCell>
                <mxCell id="70My6xYHqhUKVlmFIiMn-12" value="IOMUX 1 REG VALUE 4B" style="rounded=1;whiteSpace=wrap;html=1;fillColor=#EA6B66;" parent="SK1W7nOqpnPjAOKCd3be-1" vertex="1">
                    <mxGeometry x="405" y="340" width="260" height="40" as="geometry"/>
                </mxCell>
                <mxCell id="70My6xYHqhUKVlmFIiMn-13" value="IOMUX 1 REG ADDR 4B" style="rounded=1;whiteSpace=wrap;html=1;fillColor=#EA6B66;" parent="SK1W7nOqpnPjAOKCd3be-1" vertex="1">
                    <mxGeometry x="405" y="300" width="260" height="40" as="geometry"/>
                </mxCell>
                <mxCell id="70My6xYHqhUKVlmFIiMn-14" value="IOMUX REG VALUE ... 4B" style="rounded=1;whiteSpace=wrap;html=1;fillColor=#EA6B66;" parent="SK1W7nOqpnPjAOKCd3be-1" vertex="1">
                    <mxGeometry x="405" y="420" width="260" height="40" as="geometry"/>
                </mxCell>
                <mxCell id="70My6xYHqhUKVlmFIiMn-15" value="IOMUX REG ADDR ... 4B" style="rounded=1;whiteSpace=wrap;html=1;fillColor=#EA6B66;" parent="SK1W7nOqpnPjAOKCd3be-1" vertex="1">
                    <mxGeometry x="405" y="380" width="260" height="40" as="geometry"/>
                </mxCell>
                <mxCell id="70My6xYHqhUKVlmFIiMn-16" value="IOMUX N REG VALUE 4B" style="rounded=1;whiteSpace=wrap;html=1;fillColor=#EA6B66;" parent="SK1W7nOqpnPjAOKCd3be-1" vertex="1">
                    <mxGeometry x="405" y="500" width="260" height="40" as="geometry"/>
                </mxCell>
                <mxCell id="70My6xYHqhUKVlmFIiMn-17" value="IOMUX N REG ADDR 4B" style="rounded=1;whiteSpace=wrap;html=1;fillColor=#EA6B66;" parent="SK1W7nOqpnPjAOKCd3be-1" vertex="1">
                    <mxGeometry x="405" y="460" width="260" height="40" as="geometry"/>
                </mxCell>
            </root>
        </mxGraphModel>
    </diagram>
</mxfile>